<svg
  xmlns="http://www.w3.org/2000/svg"
  width="25"
  height="25"
  fill="#F7F7E7"
  viewBox="0 0 1152 1024"
>
  <path
    d="M224 128H32c-17.6 0-32 14.4-32 32v704c0 17.6 14.4 32 32 32h192c17.6 0 32-14.4 32-32V160c0-17.6-14.4-32-32-32m-32 192H64v-64h128zm352-192H352c-17.6 0-32 14.4-32 32v704c0 17.6 14.4 32 32 32h192c17.6 0 32-14.4 32-32V160c0-17.6-14.4-32-32-32m-32 192H384v-64h128z"
  />
  <path
    d="m765.088 177.48-171.464 86.394c-15.716 7.918-22.096 27.258-14.178 42.976l287.978 571.548c7.918 15.718 27.258 22.098 42.976 14.178l171.464-86.392c15.716-7.92 22.096-27.26 14.178-42.974L808.064 191.66c-7.92-15.718-27.26-22.1-42.976-14.18"
  />
</svg>
