<svg
  xmlns="http://www.w3.org/2000/svg"
  width="25"
  height="25"
  fill="#F7F7E7"
  viewBox="0 0 512 512"
>
  <path
    d="M224 352h64v64h-64zm128-224c17.673 0 32 14.327 32 32v96l-96 64h-64v-32l96-64v-32H160v-64zm-96-80c-55.559 0-107.792 21.636-147.078 60.922S48 200.441 48 256s21.636 107.792 60.922 147.078S200.441 464 256 464s107.792-21.636 147.078-60.922S464 311.559 464 256s-21.636-107.792-60.922-147.078S311.559 48 256 48m0-48c141.385 0 256 114.615 256 256S397.385 512 256 512 0 397.385 0 256 114.615 0 256 0"
  />
</svg>
