<svg
  xmlns="http://www.w3.org/2000/svg"
  xml:space="preserve"
  width="30"
  height="30"
  viewBox="0 0 215 215"
>
  <circle cx="106.3" cy="106.3" r="106.3" style="fill: #dceeee" />
  <path
    d="M77.12 102.33c0 15.89 12.88 28.77 28.77 28.77s28.77-12.88 28.77-28.77V72.46c0-15.89-12.88-28.77-28.77-28.77S77.12 56.57 77.12 72.46z"
    style="fill: none; stroke: #5a5a5a; stroke-width: 8; stroke-miterlimit: 10"
  />
  <path
    d="M65.28 163.24c0 3.13 2.54 5.67 5.67 5.67h71.39c3.13 0 5.67-2.54 5.67-5.67V99.19c0-3.13-2.54-5.67-5.67-5.67H70.95c-3.13 0-5.67 2.54-5.67 5.67z"
    style="fill: #db5841"
  />
  <path
    d="M65.28 128.28H83.7a2.67 2.67 0 1 1 0 5.34H65.28m0-16.54H83.7a2.67 2.67 0 1 1 0 5.34H65.28m0 17H83.7a2.67 2.67 0 1 1 0 5.34H65.28"
    style="fill: #c13e2a"
  />
</svg>
